<svg width="1920" height="993" viewBox="0 0 1920 993" fill="none" xmlns="http://www.w3.org/2000/svg">
<path d="M0 0H1920V993L1907.96 980.96C1783.93 856.927 1609.8 796.726 1435.65 817.664C1325.28 830.933 1213.44 811.725 1113.83 762.394L1096.48 753.803C969.778 691.06 825.79 672.293 687.24 700.466L622.667 713.596C473.13 744.002 318.101 732.528 174.671 680.437L0 617V0Z" fill="url(#paint0_linear_944_213)"/>
<path d="M1247.83 819.331C1244.34 822.645 1240.05 825.004 1235.38 826.182C1230.71 827.36 1225.81 827.317 1221.16 826.056C1209.25 822.678 1201.16 811.94 1193.99 801.856L1172.75 772.037L1190.65 775.315C1203.52 777.672 1216.71 780.147 1227.91 786.893C1239.12 793.639 1248.1 805.682 1247.39 818.733" fill="#E6E6E6"/>
<path d="M1580.67 826.246C1577.53 815.555 1574.37 804.719 1568.83 794.975C1563.91 786.322 1557.18 778.73 1548.31 774.01C1543.6 771.512 1538.5 769.852 1533.22 769.107C1531.85 768.913 1531.62 771.052 1532.99 771.246C1542.13 772.55 1550.61 776.719 1557.22 783.151C1564.55 790.314 1569.36 799.549 1572.91 809.053C1575.07 814.8 1576.8 820.688 1578.53 826.575C1578.58 826.853 1578.74 827.101 1578.97 827.269C1579.19 827.436 1579.48 827.51 1579.76 827.475C1580.04 827.43 1580.29 827.276 1580.46 827.046C1580.63 826.816 1580.7 826.529 1580.66 826.247L1580.67 826.246Z" fill="#F2F2F2"/>
<path d="M1235.07 395.681C1233.03 395.189 1230.91 395.151 1228.85 395.568C1226.8 395.985 1224.86 396.848 1223.17 398.095C1221.48 399.342 1220.09 400.943 1219.09 402.785C1218.09 404.628 1217.51 406.667 1217.38 408.76L1168.28 422.548L1188.32 439.881L1231.87 424.13C1235.4 424.108 1238.81 422.792 1241.43 420.432C1244.06 418.072 1245.73 414.832 1246.12 411.325C1246.52 407.818 1245.61 404.289 1243.57 401.406C1241.54 398.522 1238.51 396.485 1235.07 395.681L1235.07 395.681Z" fill="#FFB7B7"/>
<path d="M1110.29 814.326L1126.46 812.768L1128.87 757.136L1105 759.436L1110.29 814.326Z" fill="#FFB7B7"/>
<path d="M1107.25 827.174L1153.4 827.172V826.589C1153.4 821.83 1151.51 817.267 1148.14 813.902C1144.77 810.537 1140.2 808.647 1135.44 808.646H1135.44L1107.25 808.647L1107.25 827.174Z" fill="#2F2E41"/>
<path d="M1026.48 814.322L1042.99 812.73L1045.57 757.083L1021.19 759.431L1026.48 814.322Z" fill="#FFB7B7"/>
<path d="M1023.39 827.174L1069.54 827.172V826.589C1069.54 821.83 1067.64 817.267 1064.28 813.902C1060.91 810.537 1056.34 808.647 1051.58 808.646H1051.57L1023.39 808.648L1023.39 827.174Z" fill="#2F2E41"/>
<path d="M1120.6 496.811L1141.68 642.684L1136.43 796.375L1104.77 798.893L1094.87 661.062L1069.67 584.207L1054.85 693.763L1054.25 796.375L1021.56 798.893L1010.15 583.164L1018.54 489.344L1120.6 496.811Z" fill="#2F2E41"/>
<path d="M1039.63 291.181L1071.95 294.976L1071.95 324.086L1036.17 320.651L1039.63 291.181Z" fill="#FFC1C1"/>
<path d="M1059.62 301.507C1041.2 301.507 1026.27 286.591 1026.27 268.191C1026.27 249.791 1041.2 234.875 1059.62 234.875C1078.04 234.875 1092.97 249.791 1092.97 268.191C1092.97 286.591 1078.04 301.507 1059.62 301.507Z" fill="#FFB7B7"/>
<path d="M1080.18 319.628L1117 504.921C1117 504.921 1055.01 522.694 1027.85 506.287C1000.69 489.879 1012.86 439.229 1012.86 439.229L1017.84 353.044L1027.03 331.25L1034.83 313.259L1080.18 319.628Z" fill="#CBCBCB"/>
<path d="M1090.95 451.154L1078.24 316.031L1088.41 323.45L1123.97 334.988L1126.41 430.119L1151.28 555.218C1151.28 555.218 1133.5 589.88 1111.46 532.536L1090.95 451.154Z" fill="#2F2E41"/>
<path d="M1106.86 349.215L1123.97 334.987L1162.44 418.463L1205.36 409.07L1207.39 434.395L1145.2 458.983L1102.82 400.041L1106.86 349.215Z" fill="#2F2E41"/>
<path d="M1040.27 421.577L1035.48 311.606L1017.84 325.253L986.333 334.025L990.953 421.577L984.305 557.431L1017.33 567.881L1026.61 482.157L1040.27 421.577Z" fill="#2F2E41"/>
<path d="M1038.15 510.103C1037.78 508.039 1036.96 506.082 1035.76 504.369C1034.55 502.656 1032.98 501.228 1031.16 500.186C1029.34 499.145 1027.31 498.514 1025.22 498.34C1023.13 498.166 1021.02 498.452 1019.05 499.177L986.685 459.804L978.847 485.096L1010.79 518.608C1012.23 521.83 1014.8 524.413 1018.02 525.867C1021.24 527.321 1024.88 527.545 1028.25 526.497C1031.62 525.449 1034.49 523.201 1036.32 520.179C1038.14 517.158 1038.8 513.572 1038.15 510.103V510.103Z" fill="#FFB7B7"/>
<path d="M1007.42 346.232L986.332 334.024L933.259 438.723L985.003 510.5L1014.52 486.927L978.679 440.242L1011.34 390.098L1007.42 346.232Z" fill="#2F2E41"/>
<path d="M1028.25 241.557L1026.64 238.306L1034.77 234.268C1034.77 234.268 1043.75 219.681 1059.99 223.78C1076.23 227.879 1083.53 230.333 1083.53 230.333L1091.65 234.412L1087.57 238.46L1094.88 240.913L1090 243.336L1095.68 246.597L1092.62 263.314C1092.62 263.314 1087.54 250.635 1077.78 255.48C1068.02 260.326 1050.16 252.976 1050.16 252.976L1034.65 282.968C1034.65 282.968 1031.45 272.454 1025.74 275.258C1025.74 275.258 1011.16 252.065 1028.25 241.557Z" fill="#2F2E41"/>
<path d="M1233.44 288.563L1233.65 288.563L1355.96 340.728L1523.31 412.102C1523.96 412.377 1524.66 412.52 1525.37 412.524C1526.08 412.528 1526.78 412.391 1527.44 412.123L1700.08 340.564L1825.39 288.622L1825.58 288.537L1825.8 288.537C1827.78 288.539 1829.67 289.325 1831.07 290.721C1832.47 292.118 1833.25 294.011 1833.26 295.987L1833.27 619.527C1833.27 621.502 1832.48 623.396 1831.08 624.793C1829.69 626.189 1827.79 626.975 1825.81 626.977L1233.46 627.003C1231.48 627.001 1229.58 626.216 1228.18 624.819C1226.79 623.422 1226 621.529 1226 619.554L1225.98 296.013C1225.99 294.038 1226.77 292.144 1228.17 290.748C1229.57 289.351 1231.46 288.565 1233.44 288.563V288.563Z" fill="white"/>
<path d="M1828.35 289.57L1530.92 91.2798L1233.54 289.596L1516.55 470.695L1828.35 289.57Z" fill="#E6E6E6"/>
<path d="M1649.22 568.307L1787.12 568.301C1787.97 568.304 1788.81 568.139 1789.59 567.818C1790.37 567.496 1791.09 567.023 1791.69 566.426C1792.29 565.829 1792.76 565.12 1793.09 564.339C1793.41 563.558 1793.58 562.72 1793.58 561.875C1793.58 561.029 1793.42 560.191 1793.09 559.409C1792.77 558.627 1792.3 557.916 1791.7 557.318C1791.1 556.719 1790.39 556.244 1789.61 555.92C1788.83 555.596 1787.99 555.429 1787.14 555.429L1649.22 555.435C1648.37 555.433 1647.53 555.597 1646.75 555.919C1645.96 556.241 1645.25 556.714 1644.65 557.311C1644.05 557.908 1643.58 558.617 1643.25 559.398C1642.92 560.179 1642.76 561.016 1642.76 561.862C1642.75 562.708 1642.92 563.546 1643.24 564.328C1643.57 565.11 1644.04 565.82 1644.64 566.419C1645.24 567.018 1645.95 567.492 1646.73 567.816C1647.51 568.141 1648.35 568.307 1649.2 568.307L1649.22 568.307Z" fill="#F9A826"/>
<path d="M1737.64 540.632L1787.12 540.63C1787.97 540.633 1788.81 540.468 1789.59 540.146C1790.37 539.825 1791.08 539.352 1791.68 538.755C1792.28 538.158 1792.76 537.449 1793.09 536.668C1793.41 535.887 1793.58 535.049 1793.58 534.203C1793.58 533.357 1793.42 532.52 1793.09 531.738C1792.77 530.956 1792.3 530.245 1791.7 529.647C1791.1 529.048 1790.39 528.573 1789.61 528.249C1788.82 527.925 1787.98 527.758 1787.14 527.758L1737.64 527.76C1735.93 527.76 1734.3 528.437 1733.09 529.642C1731.88 530.847 1731.2 532.482 1731.2 534.187C1731.2 535.893 1731.87 537.529 1733.08 538.738C1734.28 539.946 1735.92 540.628 1737.62 540.632L1737.64 540.632Z" fill="#F9A826"/>
<path d="M1528.33 431.954C1529.38 431.955 1530.42 431.752 1531.39 431.355L1703.54 340.878L1703.53 136.625C1703.53 134.65 1702.74 132.756 1701.35 131.36C1699.95 129.963 1698.05 129.178 1696.07 129.175L1365.8 129.19C1363.83 129.192 1361.93 129.978 1360.53 131.375C1359.13 132.771 1358.35 134.665 1358.35 136.64L1358.36 350.07L1358.68 350.208L1525.18 431.321C1526.18 431.739 1527.25 431.955 1528.33 431.954Z" fill="#F9A826"/>
<path d="M1555.12 212.676L1672.32 212.671C1674.57 212.667 1676.74 211.768 1678.33 210.171C1679.93 208.575 1680.82 206.411 1680.82 204.156C1680.82 201.9 1679.93 199.737 1678.33 198.141C1676.74 196.545 1674.57 195.646 1672.32 195.642L1555.12 195.647C1552.86 195.651 1550.7 196.55 1549.11 198.146C1547.51 199.743 1546.61 201.906 1546.61 204.162C1546.62 206.417 1547.51 208.581 1549.11 210.177C1550.7 211.773 1552.87 212.672 1555.12 212.676V212.676Z" fill="white"/>
<path d="M1615.85 176.488L1672.32 176.485C1674.58 176.485 1676.74 175.588 1678.34 173.991C1679.94 172.394 1680.84 170.229 1680.84 167.971C1680.84 165.712 1679.94 163.547 1678.34 161.95C1676.74 160.354 1674.58 159.457 1672.32 159.457L1615.85 159.459C1613.59 159.459 1611.42 160.356 1609.82 161.953C1608.23 163.55 1607.33 165.716 1607.33 167.974C1607.33 170.232 1608.23 172.397 1609.82 173.994C1611.42 175.591 1613.59 176.488 1615.85 176.488V176.488Z" fill="white"/>
<path d="M1443.3 297.823L1622.28 297.815C1624.54 297.815 1626.71 296.918 1628.31 295.321C1629.91 293.724 1630.8 291.559 1630.8 289.3C1630.8 287.042 1629.91 284.877 1628.31 283.28C1626.71 281.683 1624.54 280.787 1622.28 280.787L1443.29 280.794C1441.03 280.795 1438.87 281.692 1437.27 283.288C1435.67 284.885 1434.77 287.051 1434.77 289.309C1434.77 291.567 1435.67 293.733 1437.27 295.329C1438.87 296.926 1441.04 297.823 1443.3 297.823V297.823Z" fill="white"/>
<path d="M1443.3 337.201L1622.28 337.193C1623.4 337.195 1624.51 336.976 1625.55 336.549C1626.58 336.122 1627.53 335.495 1628.32 334.705C1629.11 333.914 1629.74 332.974 1630.17 331.94C1630.6 330.906 1630.82 329.798 1630.82 328.679C1630.82 327.559 1630.6 326.451 1630.17 325.417C1629.74 324.383 1629.11 323.444 1628.32 322.653C1627.53 321.862 1626.58 321.235 1625.55 320.809C1624.51 320.382 1623.4 320.163 1622.28 320.165L1443.3 320.173C1442.18 320.171 1441.07 320.39 1440.03 320.817C1438.99 321.244 1438.05 321.871 1437.26 322.661C1436.47 323.452 1435.84 324.392 1435.41 325.426C1434.98 326.46 1434.76 327.568 1434.76 328.687C1434.76 329.807 1434.98 330.915 1435.41 331.949C1435.84 332.983 1436.47 333.922 1437.26 334.713C1438.05 335.504 1439 336.13 1440.03 336.557C1441.07 336.984 1442.18 337.203 1443.3 337.201V337.201Z" fill="white"/>
<path d="M1278.79 821.617C1273.97 821.507 1269.27 820.159 1265.13 817.705C1260.98 815.25 1257.54 811.771 1255.14 807.602C1249.07 796.814 1250.92 783.504 1252.95 771.299L1258.94 735.196L1269.32 750.128C1276.78 760.866 1284.38 771.911 1287.57 784.59C1290.75 797.269 1288.62 812.132 1278.9 820.886" fill="#E6E6E6"/>
<path d="M1578.43 828.563C1583.75 818.772 1589.16 808.864 1592.11 798.052C1594.73 788.45 1595.32 778.33 1592.36 768.733C1590.79 763.647 1588.34 758.874 1585.13 754.628C1584.29 753.521 1582.62 754.88 1583.45 755.983C1589.01 763.343 1592.08 772.276 1592.23 781.493C1592.37 791.735 1589.26 801.669 1585.07 810.912C1582.54 816.503 1579.62 821.9 1576.69 827.291C1576.53 827.525 1576.46 827.811 1576.5 828.09C1576.55 828.37 1576.7 828.622 1576.92 828.796C1577.15 828.962 1577.44 829.031 1577.72 828.987C1578 828.943 1578.26 828.789 1578.43 828.56L1578.43 828.563Z" fill="#F2F2F2"/>
<defs>
<linearGradient id="paint0_linear_944_213" x1="0.000316796" y1="-102.248" x2="445.003" y2="953.976" gradientUnits="userSpaceOnUse">
<stop stop-color="#FFA700"/>
<stop offset="1" stop-color="#FFC045"/>
</linearGradient>
</defs>
</svg>
