<svg width="39" height="39" viewBox="0 0 39 39" fill="none" xmlns="http://www.w3.org/2000/svg">
<path d="M19.3977 0.400024C29.8745 0.400024 38.4013 8.74924 38.6874 19.157L38.6948 19.6971V21.6268C38.6948 25.8199 35.7567 29.3457 31.9408 29.3457C29.6771 29.3457 27.7224 28.1049 26.5066 26.2201C24.7441 28.1411 22.2116 29.3457 19.3977 29.3457C14.0689 29.3457 9.74913 25.0259 9.74913 19.6971C9.74913 14.3684 14.0689 10.0486 19.3977 10.0486C24.5862 10.0486 28.8182 14.144 29.0373 19.2786L29.0462 19.6971V21.6268C29.0462 23.8282 30.4279 25.4862 31.9408 25.4862C33.378 25.4862 34.6969 23.9899 34.8252 21.9528L34.8354 21.6268V19.6971C34.8354 11.1711 27.9237 4.25944 19.3977 4.25944C10.8717 4.25944 3.96001 11.1711 3.96001 19.6971C3.96001 28.2231 10.8717 35.1348 19.3977 35.1348C21.6421 35.1348 23.8153 34.6567 25.8092 33.7451C26.7784 33.3019 27.9234 33.7284 28.3666 34.6976C28.8097 35.6669 28.3833 36.8118 27.414 37.255C24.919 38.3958 22.1987 38.9942 19.3977 38.9942C8.74019 38.9942 0.100586 30.3546 0.100586 19.6971C0.100586 9.03963 8.74019 0.400024 19.3977 0.400024ZM19.3977 13.908C16.2004 13.908 13.6086 16.4999 13.6086 19.6971C13.6086 22.8944 16.2004 25.4862 19.3977 25.4862C22.5949 25.4862 25.1868 22.8944 25.1868 19.6971C25.1868 16.4999 22.5949 13.908 19.3977 13.908Z" fill="#FFC557"/>
</svg>
